<svg width="129" height="33" viewBox="0 0 129 33" fill="none" xmlns="http://www.w3.org/2000/svg">
<g clip-path="url(#clip0)">
<path d="M19.3235 21.5121C19.3235 22.5638 19.0567 23.4995 18.5231 24.3192C17.9895 25.1312 17.22 25.7654 16.2147 26.2216C15.2094 26.6701 14.0301 26.8944 12.6768 26.8944C11.5477 26.8944 10.6004 26.8171 9.83479 26.6624C9.0692 26.5 8.27267 26.2216 7.44522 25.8272V21.7441C8.31907 22.1926 9.22773 22.5445 10.1712 22.7997C11.1146 23.0471 11.9808 23.1709 12.7695 23.1709C13.4501 23.1709 13.9489 23.0549 14.2659 22.8229C14.583 22.5831 14.7415 22.2777 14.7415 21.9065C14.7415 21.6745 14.6758 21.4734 14.5443 21.3033C14.4206 21.1254 14.2157 20.9476 13.9295 20.7697C13.6511 20.5918 12.901 20.2284 11.6792 19.6793C10.5733 19.1766 9.74199 18.6894 9.18519 18.2177C8.63613 17.746 8.22627 17.2047 7.95561 16.5937C7.69268 15.9828 7.56122 15.2598 7.56122 14.4246C7.56122 12.8625 8.12961 11.6445 9.26639 10.7706C10.4032 9.89676 11.9653 9.45983 13.9527 9.45983C15.7082 9.45983 17.4984 9.86583 19.3235 10.6778L17.9199 14.2158C16.3346 13.4888 14.9658 13.1254 13.8135 13.1254C13.2181 13.1254 12.785 13.2298 12.5144 13.4386C12.2437 13.6474 12.1084 13.9064 12.1084 14.2158C12.1084 14.5483 12.2785 14.846 12.6188 15.109C12.9667 15.3719 13.9025 15.8514 15.4259 16.5473C16.8875 17.2047 17.9006 17.9123 18.4651 18.6701C19.0373 19.4202 19.3235 20.3676 19.3235 21.5121ZM32.0137 26.6624H21.945V9.70343H32.0137V13.3806H26.527V16.0485H31.6077V19.7257H26.527V22.9273H32.0137V26.6624ZM49.4715 26.6624H44.298L40.9456 20.1781L39.5884 20.9901V26.6624H34.9833V9.70343H39.5884V17.0693C39.8204 16.6131 40.2883 15.89 40.992 14.9002L44.5531 9.70343H49.5643L44.2168 17.3013L49.4715 26.6624ZM61.7209 26.6624L60.8857 23.4841H55.3758L54.5174 26.6624H49.4831L55.0162 9.63383H61.1293L66.7321 26.6624H61.7209ZM59.9346 19.7257L59.2038 16.9417C59.0336 16.3231 58.8248 15.5227 58.5774 14.5406C58.3376 13.5584 58.1791 12.8547 58.1018 12.4294C58.0322 12.8238 57.893 13.4734 57.6842 14.3782C57.4831 15.283 57.0307 17.0655 56.327 19.7257H59.9346ZM68.5764 26.6624V9.70343H73.1816V26.6624H68.5764ZM89.1662 15.0974C89.1662 16.992 88.6055 18.4575 87.4842 19.4937C86.3706 20.5222 84.7853 21.0365 82.7283 21.0365H81.4407V26.6624H76.8587V9.70343H82.7283C84.8704 9.70343 86.4789 10.1713 87.5538 11.107C88.6287 12.0427 89.1662 13.3728 89.1662 15.0974ZM81.4407 17.3013H82.2759C82.9641 17.3013 83.5093 17.108 83.9115 16.7213C84.3213 16.3347 84.5262 15.8011 84.5262 15.1206C84.5262 13.976 83.8921 13.4038 82.6239 13.4038H81.4407V17.3013ZM102.274 26.6624L101.439 23.4841H95.9289L95.0705 26.6624H90.0362L95.5693 9.63383H101.682L107.285 26.6624H102.274ZM100.488 19.7257L99.7569 16.9417C99.5867 16.3231 99.3779 15.5227 99.1305 14.5406C98.8907 13.5584 98.7322 12.8547 98.6549 12.4294C98.5853 12.8238 98.4461 13.4734 98.2373 14.3782C98.0362 15.283 97.5838 17.0655 96.8801 19.7257H100.488ZM115.185 15.9905L118.108 9.70343H123.073L117.493 20.0389V26.6624H112.876V20.1781L107.297 9.70343H112.285L115.185 15.9905Z" fill="#1188D2"/>
</g>
<defs>
<clipPath id="clip0">
<rect width="129" height="33" fill="white"/>
</clipPath>
</defs>
</svg>
