<?xml version="1.0" standalone="no"?>
<!DOCTYPE svg PUBLIC "-//W3C//DTD SVG 20010904//EN"
 "http://www.w3.org/TR/2001/REC-SVG-20010904/DTD/svg10.dtd">
<svg version="1.0" xmlns="http://www.w3.org/2000/svg"
 width="260.000000pt" height="260.000000pt" viewBox="0 0 260.000000 260.000000"
 preserveAspectRatio="xMidYMid meet">
<metadata>
Created by potrace 1.11, written by Peter Selinger 2001-2013
</metadata>
<g transform="translate(0.000000,260.000000) scale(0.100000,-0.100000)"
fill="#000000" stroke="none">
<path d="M637 2044 c-1 -1 -36 -4 -78 -8 -246 -21 -427 -153 -469 -342 -35
-155 5 -322 102 -425 61 -66 113 -97 312 -193 199 -96 236 -125 236 -186 0
-51 -31 -87 -90 -104 -100 -30 -317 4 -486 75 -43 19 -83 34 -88 34 -15 0 -14
-356 1 -370 17 -17 188 -72 263 -84 94 -16 361 -7 435 13 239 67 381 232 390
455 6 170 -56 292 -199 390 -23 16 -125 70 -227 120 -201 97 -239 127 -239
184 0 80 94 116 245 93 65 -10 179 -43 232 -68 23 -11 48 -18 54 -16 11 4 129
290 129 314 0 11 -190 80 -249 89 -19 3 -38 8 -42 10 -8 6 -227 24 -232 19z"/>
<path d="M1410 1235 l0 -785 212 2 212 3 0 258 0 257 90 1 c50 0 111 2 136 5
310 36 487 232 488 540 0 231 -103 389 -302 461 -23 8 -50 16 -61 19 -11 2
-42 8 -70 13 -27 5 -197 10 -377 11 l-328 1 0 -786z m637 422 c114 -59 87
-269 -42 -323 -28 -11 -104 -19 -156 -15 -13 1 -15 25 -15 181 l0 179 91 -3
c57 -2 103 -10 122 -19z"/>
</g>
</svg>
