<?xml version="1.0" standalone="no"?>
<!DOCTYPE svg PUBLIC "-//W3C//DTD SVG 20010904//EN"
 "http://www.w3.org/TR/2001/REC-SVG-20010904/DTD/svg10.dtd">
<svg version="1.0" xmlns="http://www.w3.org/2000/svg"
 width="260.000000pt" height="260.000000pt" viewBox="0 0 260.000000 260.000000"
 preserveAspectRatio="xMidYMid meet">
<metadata>
Created by potrace 1.11, written by Peter Selinger 2001-2013
</metadata>
<g transform="translate(0.000000,260.000000) scale(0.100000,-0.100000)"
fill="#000000" stroke="none">
<path d="M808 2195 c-381 -72 -678 -373 -738 -749 -16 -96 -7 -309 15 -391 27
-98 107 -254 173 -337 137 -171 346 -293 567 -329 105 -17 298 -6 395 21 101
29 201 78 294 145 l78 56 76 -27 c93 -33 264 -44 365 -24 315 61 546 365 524
690 -11 170 -74 309 -196 431 -62 62 -93 85 -171 122 -52 25 -119 50 -148 56
-66 14 -232 14 -290 1 l-43 -10 -77 78 c-127 129 -269 212 -434 252 -110 28
-288 34 -390 15z m-39 -645 c37 -44 40 -51 24 -56 -93 -29 -193 -99 -193 -134
0 -56 35 -63 159 -30 41 11 82 20 91 20 9 0 61 38 116 85 109 93 180 135 231
135 45 0 103 -31 143 -76 88 -101 79 -204 -28 -308 l-51 -49 68 -80 68 -81
-60 -51 -61 -52 -119 140 -120 140 -21 -44 c-11 -24 -42 -65 -68 -91 -52 -51
-173 -117 -187 -102 -9 9 -43 106 -38 109 1 1 27 14 57 28 64 30 82 44 99 75
17 31 -1 62 -37 62 -15 0 -60 -9 -100 -20 -132 -37 -205 -21 -252 55 -36 59
-42 94 -24 154 12 43 28 67 73 111 53 51 147 110 176 110 7 0 31 -23 54 -50z"/>
<path d="M1140 1408 c-30 -11 -60 -37 -60 -52 0 -6 23 -36 50 -66 l50 -55 30
33 c35 38 39 78 10 114 -23 31 -47 38 -80 26z"/>
</g>
</svg>
